<svg width="84" height="73" viewBox="0 0 84 73" fill="none" xmlns="http://www.w3.org/2000/svg">
<path d="M15.982 1.56086C15.5716 2.22927 12.0829 8.39922 8.18385 15.3404C4.28476 22.2816 0.744794 28.5544 0.334363 29.2742C-0.332587 30.5082 -0.229979 30.8681 2.79695 36.2154C4.54128 39.3004 6.1317 41.974 6.33691 42.2311C6.54213 42.4368 11.2621 42.5396 16.8029 42.4882L26.8585 42.334L23.7289 36.9352C22.0359 33.9531 20.5481 31.2795 20.3942 30.971C20.189 30.4568 31.9375 9.06763 33.0149 7.98789C33.2714 7.73081 34.1949 7.62798 35.0671 7.73081L36.6575 7.88506L32.1428 15.8546C29.6802 20.225 26.8072 25.3666 25.7811 27.2176L23.8828 30.5596L27.3202 36.5753L30.7062 42.591H34.7079H38.761L37.9914 41.1514C37.581 40.3801 36.0932 37.7065 34.6566 35.1871L31.9888 30.611L36.1958 23.1043C38.5044 18.991 41.8905 12.9239 43.7374 9.68462C45.5331 6.4454 47.4826 3.00051 48.047 2.07502L49.073 0.429699H39.0175H29.0132L21.1124 14.4149C16.7516 22.1274 12.9551 28.9657 12.596 29.5827C12.1343 30.4568 12.2882 31.0738 13.3142 32.9248C14.0325 34.1074 14.5968 35.2899 14.5968 35.4956C14.5968 35.7527 13.7247 35.9069 12.6473 35.9069C10.8517 35.9069 10.5951 35.7527 9.26123 33.1819L7.77342 30.4568L15.7768 16.2659C20.189 8.45063 23.9854 1.7151 24.1394 1.25236C24.3959 0.532532 23.9341 0.429699 20.5481 0.429699C17.0594 0.429699 16.5977 0.532532 15.982 1.56086Z" fill="url(#paint0_linear_2015_96)"/>
<path d="M50.1869 4.73018C48.8519 7.11258 46.6442 10.9452 45.2579 13.3276C43.923 15.6582 42.7935 17.8334 42.7935 18.0924C42.7935 18.4031 45.566 18.6103 49.6221 18.6103H56.3994L61.5337 27.4666C70.416 42.7451 69.6972 41.2432 68.9784 42.9523C68.619 43.8327 68.1569 44.506 67.9515 44.506C67.7462 44.506 64.6142 39.3787 61.0202 33.1119L54.397 21.7178H47.4143H40.4317L38.532 25.0842C37.5052 26.8969 36.6323 28.5543 36.6323 28.7096C36.6323 28.865 39.7129 28.9686 43.5123 28.9686H50.3922L58.9665 43.7291C63.7414 51.8604 67.7462 58.4897 67.9002 58.4897C68.2082 58.4379 77.3473 42.5897 77.5527 41.6575C77.6553 41.3985 73.8046 34.5103 69.0811 26.379L60.4555 11.6184L57.5289 11.4631C55.8859 11.3595 54.6024 11.1523 54.705 10.9452C56.3994 7.52692 56.1426 7.73408 59.4286 7.73408H62.5605L68.6703 18.2477C72.0076 23.9966 75.961 30.7295 77.3473 33.2673L79.9658 37.7731L81.9168 34.3549C83.0464 32.4386 83.7652 30.5223 83.6111 30.108C83.3544 29.3311 75.1909 15.2956 69.4918 5.66242L66.5653 0.742233L59.5826 0.586861L52.6513 0.431484L50.1869 4.73018Z" fill="url(#paint1_linear_2015_96)"/>
<path d="M45.7075 38.6367L42.4036 44.4069L27.1551 44.7675C18.8193 44.9736 11.1442 45.2312 10.1276 45.2827L8.29782 45.4373L11.0934 50.3316C12.6182 53.0106 14.753 56.72 15.7696 58.5746L17.7011 61.9234L34.881 62.0779L52.1118 62.181L53.3826 59.8626C54.0942 58.5746 54.8057 57.5958 55.0599 57.6988C55.314 57.7503 55.8731 58.4716 56.3306 59.2444C57.1438 60.5839 57.1438 60.7384 55.8223 63.1083L54.4499 65.5297L39.3031 65.8904C30.9673 66.0964 23.2922 66.354 22.2756 66.4056L20.395 66.5601L22.174 69.7543L23.9529 73H41.1329H58.3129L61.5659 67.2299C63.3449 64.0872 64.8698 61.3052 64.9714 61.0991C65.1239 60.7384 57.6521 47.0344 55.619 43.9947C55.1107 43.1704 54.6024 43.7886 51.6036 48.9921L48.1981 54.9683H41.5396C37.8291 54.9683 31.933 55.1229 28.4258 55.3289L21.9706 55.6381L21.1574 54.041C20.6999 53.1651 20.3441 52.3408 20.3441 52.1347C20.3441 51.9802 26.1386 51.8772 33.2545 51.8772H46.1649L49.7229 45.7979L53.2301 39.7702L51.9085 37.4003C48.9605 32.1968 49.4688 32.0938 45.7075 38.6367Z" fill="url(#paint2_linear_2015_96)"/>
<defs>
<linearGradient id="paint0_linear_2015_96" x1="0" y1="21.5104" x2="49.073" y2="21.5104" gradientUnits="userSpaceOnUse">
<stop stop-color="#1100AD"/>
<stop offset="1" stop-color="#A033B0"/>
</linearGradient>
<linearGradient id="paint1_linear_2015_96" x1="36.6323" y1="29.4606" x2="83.6318" y2="29.4606" gradientUnits="userSpaceOnUse">
<stop stop-color="#1100AD"/>
<stop offset="1" stop-color="#A033B0"/>
</linearGradient>
<linearGradient id="paint2_linear_2015_96" x1="8.29782" y1="53.3017" x2="64.9737" y2="53.3017" gradientUnits="userSpaceOnUse">
<stop stop-color="#1100AD"/>
<stop offset="1" stop-color="#A033B0"/>
</linearGradient>
</defs>
</svg>
